<svg width="960" height="187" viewBox="0 0 960 187" fill="none" xmlns="http://www.w3.org/2000/svg">
<rect width="960" height="187" fill="none"/>
<path d="M623.962 92.2178V109.806H618.352V66.3662H633.135C636.925 66.3662 640.109 67.655 642.687 70.1568C645.34 72.6585 646.705 75.691 646.705 79.3299C646.705 83.0446 645.34 86.0771 642.687 88.5789C640.109 91.0806 636.925 92.2936 633.135 92.2936L623.962 92.2178ZM623.962 71.673V86.8352H633.286C635.485 86.8352 637.38 86.0771 638.821 84.5609C640.337 83.0446 641.095 81.301 641.095 79.2541C641.095 77.283 640.337 75.4635 638.821 74.0231C637.38 72.5069 635.561 71.7488 633.286 71.7488L623.962 71.673Z" fill="#3C4043"/>
<path d="M661.338 79.1021C665.508 79.1021 668.768 80.2392 671.118 82.4377C673.468 84.6363 674.681 87.6687 674.681 91.5351V109.881H669.374V105.712H669.147C666.873 109.123 663.764 110.791 659.898 110.791C656.638 110.791 653.909 109.806 651.635 107.91C649.36 106.015 648.299 103.513 648.299 100.632C648.299 97.5241 649.436 95.0982 651.786 93.2787C654.136 91.4592 657.245 90.5495 661.111 90.5495C664.447 90.5495 667.176 91.156 669.298 92.369V91.0802C669.298 89.1091 668.54 87.5171 667.024 86.1525C665.508 84.7879 663.688 84.1056 661.642 84.1056C658.533 84.1056 656.032 85.3944 654.212 88.0478L649.284 84.9395C652.089 80.9973 656.032 79.1021 661.338 79.1021ZM654.136 100.632C654.136 102.073 654.743 103.286 656.032 104.271C657.245 105.257 658.685 105.712 660.353 105.712C662.703 105.712 664.826 104.802 666.645 103.058C668.465 101.315 669.374 99.2678 669.374 96.9176C667.631 95.553 665.205 94.8707 662.096 94.8707C659.822 94.8707 657.927 95.4014 656.411 96.4628C654.894 97.6758 654.136 99.0403 654.136 100.632Z" fill="#3C4043"/>
<path d="M705.081 80.0122L686.432 122.845H680.67L687.569 107.835L675.363 80.0122H681.428L690.298 101.391H690.45L699.092 80.0122H705.081Z" fill="#3C4043"/>
<path d="M601.746 88.6553C601.746 86.8358 601.594 85.0922 601.291 83.4243H577.865V93.0523H591.36C590.829 96.2364 589.085 98.9656 586.356 100.785V107.002H594.392C599.017 102.605 601.746 96.2364 601.746 88.6553Z" fill="#5280BD"/>
<path d="M586.28 100.786C584.082 102.302 581.201 103.212 577.789 103.212C571.27 103.212 565.735 98.8151 563.764 92.9019H555.501V99.3458C559.595 107.458 568.01 113.068 577.789 113.068C584.537 113.068 590.147 110.869 594.316 107.079L586.28 100.786Z" fill="#36A954"/>
<path d="M563.083 88.0496C563.083 86.3818 563.387 84.7898 563.842 83.2735V76.8296H555.578C553.91 80.1653 552.925 84.0316 552.925 88.0496C552.925 92.0676 553.91 95.8582 555.578 99.2697L563.842 92.8257C563.311 91.3095 563.083 89.7175 563.083 88.0496Z" fill="#FABC06"/>
<path d="M577.867 73.0387C581.506 73.0387 584.841 74.3275 587.419 76.7534L594.545 69.6272C590.224 65.6092 584.614 63.1074 577.867 63.1074C568.163 63.1074 559.672 68.7174 555.578 76.8292L563.842 83.2732C565.813 77.4357 571.347 73.0387 577.867 73.0387Z" fill="#E94435"/>
<path d="M775.374 70.6919C776.983 68.6233 778.132 65.8651 777.787 63.1069C775.374 63.2219 772.501 64.7159 770.777 66.6696C769.283 68.3934 767.904 71.2666 768.249 73.9098C771.007 74.2546 773.65 72.7606 775.374 70.6919Z" fill="#000001"/>
<path d="M777.785 74.5994C773.878 74.3696 770.545 76.783 768.706 76.783C766.867 76.783 763.994 74.7143 760.891 74.7143C756.869 74.8293 753.191 77.0128 751.123 80.6904C746.985 87.9306 749.973 98.6186 754.111 104.48C756.064 107.353 758.478 110.571 761.581 110.456C764.569 110.341 765.718 108.502 769.281 108.502C772.843 108.502 773.878 110.456 777.095 110.341C780.313 110.226 782.382 107.468 784.336 104.48C786.634 101.147 787.554 97.929 787.554 97.8141C787.439 97.6992 781.233 95.4007 781.233 88.2754C781.118 82.2993 786.06 79.4262 786.289 79.3113C783.646 75.174 779.279 74.7143 777.785 74.5994Z" fill="#000001"/>
<path d="M811.574 66.4399C820.079 66.4399 825.94 72.3011 825.94 80.6905C825.94 89.1949 819.964 95.0561 811.344 95.0561H802.035V109.881H795.255V66.4399H811.574ZM802.035 89.4248H809.735C815.596 89.4248 818.929 86.2069 818.929 80.8055C818.929 75.2891 815.596 72.1862 809.735 72.1862H801.92V89.4248H802.035Z" fill="#000001"/>
<path d="M827.662 101.032C827.662 95.5154 831.914 92.0677 839.499 91.608L848.234 91.1483V88.7349C848.234 85.1722 845.82 83.1036 841.913 83.1036C838.12 83.1036 835.822 84.9424 835.247 87.7006H829.041C829.386 81.9543 834.328 77.7021 842.143 77.7021C849.843 77.7021 854.784 81.7245 854.784 88.1603V109.996H848.578V104.824H848.463C846.625 108.387 842.602 110.57 838.465 110.57C832.029 110.57 827.662 106.663 827.662 101.032ZM848.234 98.1587V95.6303L840.419 96.09C836.511 96.3199 834.328 98.0437 834.328 100.802C834.328 103.56 836.626 105.399 840.074 105.399C844.671 105.399 848.234 102.296 848.234 98.1587Z" fill="#000001"/>
<path d="M860.53 121.719V116.432C860.99 116.547 862.139 116.547 862.599 116.547C865.587 116.547 867.196 115.283 868.23 112.065C868.23 111.95 868.805 110.111 868.805 110.111L857.312 78.3921H864.323L872.368 104.25H872.483L880.527 78.3921H887.423L875.585 111.835C872.827 119.535 869.724 121.948 863.174 121.948C862.714 121.833 861.105 121.833 860.53 121.719Z" fill="#000001"/>
<path d="M423.898 135.038V129.866C423.959 128.989 423.636 128.128 423.011 127.502C422.386 126.877 421.519 126.548 420.631 126.598C419.457 126.522 418.334 127.084 417.701 128.066C417.124 127.113 416.066 126.55 414.944 126.598C413.971 126.552 413.045 127.017 412.509 127.823V126.807H410.696V135.038H412.524V130.478C412.443 129.907 412.624 129.33 413.02 128.906C413.415 128.482 413.981 128.256 414.563 128.29C415.768 128.29 416.376 129.063 416.376 130.46V135.038H418.207V130.478C418.133 129.909 418.317 129.336 418.71 128.914C419.104 128.491 419.666 128.263 420.246 128.29C421.485 128.29 422.078 129.063 422.078 130.46V135.038H423.898ZM434.093 130.926V126.818H432.262V127.815C431.639 127.02 430.665 126.571 429.649 126.609C427.293 126.678 425.419 128.586 425.419 130.917C425.419 133.248 427.293 135.156 429.649 135.225C430.668 135.262 431.639 134.814 432.262 134.019V135.019H434.074L434.093 130.926ZM427.357 130.926C427.437 129.574 428.595 128.533 429.964 128.583C431.333 128.633 432.41 129.756 432.389 131.11C432.368 132.465 431.256 133.555 429.887 133.563C429.185 133.58 428.508 133.304 428.022 132.802C427.537 132.3 427.288 131.619 427.338 130.926H427.357ZM472.821 126.617C473.414 126.617 474.007 126.729 474.558 126.945C475.626 127.358 476.478 128.183 476.918 129.231C477.379 130.333 477.379 131.569 476.922 132.674C476.483 133.722 475.63 134.548 474.562 134.96C473.413 135.401 472.139 135.401 470.99 134.96C469.931 134.539 469.087 133.716 468.648 132.674C468.193 131.57 468.191 130.333 468.645 129.227C469.084 128.187 469.928 127.365 470.986 126.945C471.564 126.71 472.179 126.587 472.798 126.59L472.817 126.617H472.821ZM472.821 128.342C472.466 128.336 472.113 128.4 471.783 128.529C471.144 128.784 470.643 129.294 470.404 129.933C470.137 130.622 470.137 131.384 470.404 132.073C470.643 132.712 471.143 133.223 471.783 133.477C472.785 133.862 473.922 133.652 474.717 132.936C474.958 132.689 475.146 132.395 475.268 132.073C475.535 131.384 475.535 130.622 475.268 129.933C475.146 129.612 474.958 129.32 474.717 129.074C474.469 128.834 474.173 128.649 473.848 128.529C473.519 128.381 473.163 128.299 472.802 128.29L472.817 128.342H472.821ZM443.941 130.926C443.941 128.342 442.318 126.617 439.991 126.617C438.435 126.639 437.008 127.48 436.249 128.825C435.49 130.169 435.513 131.812 436.311 133.135C437.109 134.457 438.559 135.258 440.116 135.236C441.355 135.273 442.571 134.863 443.522 134.078L442.654 132.753C441.965 133.298 441.112 133.6 440.229 133.612C438.984 133.717 437.88 132.823 437.737 131.595H443.915C443.941 131.382 443.941 131.165 443.941 130.923V130.926ZM437.745 130.202C437.815 129.064 438.783 128.185 439.935 128.211C441.074 128.188 442.017 129.082 442.042 130.209L437.745 130.202ZM451.565 128.91C450.77 128.456 449.87 128.211 448.952 128.2C447.955 128.2 447.366 128.566 447.366 129.171C447.366 129.769 447.993 129.873 448.775 129.978L449.647 130.097C451.46 130.359 452.555 131.117 452.555 132.562C452.555 134.011 451.165 135.251 448.767 135.251C447.483 135.285 446.222 134.911 445.168 134.183L446.037 132.786C446.841 133.373 447.816 133.679 448.812 133.649C450.047 133.649 450.712 133.287 450.712 132.648C450.712 132.185 450.24 131.927 449.247 131.789L448.378 131.666C446.509 131.408 445.501 130.583 445.501 129.238C445.501 127.599 446.86 126.598 448.986 126.598C450.176 126.561 451.35 126.859 452.373 127.461L451.565 128.91ZM460.281 128.443H457.324V132.159C457.324 133.018 457.622 133.541 458.528 133.541C459.094 133.52 459.645 133.358 460.129 133.07L460.654 134.605C459.975 135.027 459.189 135.247 458.389 135.244C456.244 135.244 455.496 134.105 455.496 132.192V128.447H453.804V126.811H455.496V124.309H457.324V126.811H460.281V128.447V128.443ZM466.545 126.598C466.983 126.598 467.421 126.676 467.833 126.822L467.278 128.547C466.917 128.406 466.532 128.336 466.145 128.342C464.959 128.342 464.4 129.1 464.4 130.46V135.072H462.588V126.841H464.381V127.842C464.834 127.071 465.678 126.608 466.579 126.635L466.541 126.598H466.545ZM479.074 133.839C479.298 133.837 479.515 133.92 479.678 134.071C479.877 134.261 479.964 134.539 479.909 134.807C479.854 135.076 479.665 135.298 479.407 135.397C479.302 135.443 479.189 135.467 479.074 135.468C478.738 135.465 478.433 135.27 478.293 134.967C478.161 134.66 478.233 134.304 478.474 134.071C478.626 133.93 478.824 133.848 479.033 133.839H479.074ZM479.074 135.296C479.245 135.298 479.409 135.23 479.527 135.109C479.716 134.928 479.774 134.652 479.674 134.412C479.574 134.172 479.337 134.016 479.074 134.019C478.901 134.019 478.736 134.088 478.614 134.209C478.388 134.452 478.388 134.825 478.614 135.068C478.734 135.192 478.9 135.262 479.074 135.262V135.296ZM479.127 134.269C479.209 134.265 479.289 134.291 479.354 134.34C479.407 134.385 479.437 134.452 479.429 134.519C479.437 134.579 479.414 134.631 479.373 134.676C479.321 134.721 479.256 134.747 479.188 134.751L479.441 135.038H479.24L479.006 134.751H478.927V135.038H478.761V134.243L479.127 134.269ZM478.938 134.418V134.624H479.127C479.162 134.634 479.198 134.634 479.233 134.624C479.244 134.6 479.244 134.573 479.233 134.549C479.247 134.523 479.247 134.492 479.233 134.467C479.198 134.456 479.162 134.456 479.127 134.467L478.938 134.414V134.418Z" fill="black"/>
<path d="M430.215 64.0244H457.667V112.799H430.215V64.0244Z" fill="#7673C0"/>
<path d="M431.96 88.4114C431.95 78.8895 436.368 69.8922 443.941 64.0131C431.079 54.0149 412.607 55.4707 401.508 67.3575C390.409 79.2443 390.409 97.571 401.508 109.458C412.607 121.345 431.079 122.8 443.941 112.802C436.37 106.925 431.952 97.9306 431.96 88.4114Z" fill="#EB001B"/>
<path d="M494.692 88.4113C494.688 100.286 487.83 111.117 477.03 116.306C466.231 121.496 453.384 120.134 443.941 112.798C451.508 106.916 455.925 97.9241 455.925 88.4057C455.925 78.8872 451.508 69.8954 443.941 64.013C453.384 56.673 466.234 55.3084 477.036 60.4985C487.839 65.6885 494.697 76.5224 494.7 88.4001L494.692 88.4113Z" fill="#00A1DF"/>
<path d="M263.723 127.646C281.428 127.646 295.78 113.052 295.78 95.0502C295.78 77.0481 281.428 62.4546 263.723 62.4546C246.018 62.4546 231.666 77.0481 231.666 95.0502C231.666 113.052 246.018 127.646 263.723 127.646Z" fill="#FF2F05"/>
<path d="M301.125 128.189C318.829 128.189 333.182 113.595 333.182 95.5932C333.182 77.5911 318.829 62.9976 301.125 62.9976C283.42 62.9976 269.067 77.5911 269.067 95.5932C269.067 113.595 283.42 128.189 301.125 128.189Z" fill="#FFBC37"/>
<path fill-rule="evenodd" clip-rule="evenodd" d="M282.893 68.7822C290.717 74.7255 295.782 84.2165 295.782 94.9103C295.782 106.025 290.311 115.84 281.957 121.723C274.133 115.78 269.067 106.289 269.067 95.595C269.067 84.4806 274.539 74.6655 282.893 68.7822Z" fill="#FF8729"/>
<path d="M93.335 84.9592L98.7769 105.497H105.094L114.923 81.7119H108.515L102.323 97.8611L99.7785 85.2232L93.335 84.9592Z" fill="#1A1F71"/>
<path d="M117.316 81.623L113.542 105.496H119.511L123.37 81.623H117.316Z" fill="#1A1F71"/>
<path d="M140.921 87.3286L141.798 82.3285C139.941 81.6511 137.983 81.2951 136.007 81.2759C132.846 81.2759 126.001 83.2938 126.001 89.1709C126.001 95.0479 134.51 95.3153 134.51 98.5603C134.51 101.805 126.876 101.459 124.594 99.3535L123.633 104.53C123.633 104.53 127.055 105.848 130.125 105.848C133.196 105.848 140.837 105.146 140.837 97.5111C140.837 90.8387 132.322 92.1564 132.322 88.1205C132.322 88.1205 133.198 84.0835 140.922 87.3274L140.921 87.3286Z" fill="#1A1F71"/>
<path fill-rule="evenodd" clip-rule="evenodd" d="M147.064 105.496H140.482C140.482 105.496 148.515 86.64 149.348 84.434C150.229 82.1078 152.155 81.8892 152.155 81.8892H157.421L162.656 105.465H156.951L156.279 102.072H148.206L147.064 105.496ZM149.958 97.1584H155.313L153.295 88.3819L149.958 97.1584Z" fill="#1A1F71"/>
<path d="M101.653 94.5543L99.7755 85.2237C99.7755 85.2237 99.5217 81.7192 97.0245 81.7192H86.8271V82.2053C86.8271 82.2053 96.9112 83.8777 101.651 94.5554L101.653 94.5543Z" fill="#1A1F71"/>
<path d="M170.825 114.366H77.875V122.816H170.825V114.366Z" fill="#F8B600"/>
<path d="M170.825 63.6646H77.875V72.1146H170.825V63.6646Z" fill="#1A1F71"/>
</svg>
